<svg width="355" height="329" viewBox="0 0 355 329" fill="none" xmlns="http://www.w3.org/2000/svg">
<path fill-rule="evenodd" clip-rule="evenodd" d="M241.653 102.705C241.775 102.705 216.43 79.5343 185.33 51.2147C154.23 22.895 128.664 -0.15149 128.518 0.000749934C128.025 0.508364 126.867 5.84237 126.348 9.98344C125.337 18.0651 126.629 26.8338 129.893 34.0305L131.266 37.0589L138.336 41.2664C160.275 54.3211 170.326 60.3094 186.086 69.7125C228.187 94.8331 241.446 102.705 241.653 102.705ZM163.559 95.8884C128.016 76.8751 77.6145 49.885 71.9211 46.8166C69.9965 45.7789 68.3492 44.9267 68.2604 44.922C68.172 44.9176 68.6475 45.6422 69.3176 46.5315C83.401 65.223 106.525 82.8655 138.846 99.5766C147.563 104.084 195.285 127.719 195.669 127.719C195.959 127.719 199.42 122.187 199.887 120.976C200.501 119.384 199.652 116.723 197.98 114.996C197.059 114.045 185.328 107.533 163.559 95.8884ZM141.908 106.138C129.879 99.6532 109.506 88.6614 96.6346 81.7118C83.7641 74.7623 73.0833 69.0737 72.9004 69.0708C72.4894 69.0643 76.0394 73.9554 80.4091 79.4162C84.3993 84.4022 93.3334 93.2639 98.3849 97.2454C103.896 101.59 114.702 108.552 122.88 113.026C127.95 115.8 181.096 142.468 186.363 144.881C186.516 144.952 187.66 143.399 188.904 141.431C191.487 137.348 191.621 135.849 189.662 132.931C189.551 132.766 189.48 132.632 189.4 132.504C188.63 131.265 187.086 130.492 141.908 106.138ZM176.466 148.461C174.781 147.516 152.93 135.476 127.91 121.706C102.89 107.936 82.3582 96.6698 82.2838 96.6689C82.0441 96.6661 82.7318 97.6643 85.8493 101.842C95.9024 115.318 107.281 125.597 122.495 134.947C130.753 140.022 138.954 144.393 160.716 155.32C167.452 158.702 173.977 162.029 175.217 162.715L177.47 163.961L179.727 160.395C181.722 157.243 181.961 156.618 181.791 154.992C181.512 152.317 179.971 150.426 176.466 148.461ZM267.678 127.02L258.158 118.125C252.921 113.233 248.446 109.28 248.215 109.341C247.983 109.401 242.41 118.171 235.83 128.828C229.249 139.485 222.191 150.899 220.147 154.192C218.1 157.485 216.686 160.081 217.003 159.96C217.321 159.84 228.852 152.379 242.629 143.38L267.678 127.02ZM156.998 159.113C141.549 150.856 106.375 131.999 95.548 126.17C91.4626 123.971 88.0516 122.237 87.9694 122.318C87.7318 122.553 95.6062 134.042 98.6164 137.854C103.686 144.274 109.103 148.723 118.943 154.542C124.476 157.815 128.371 159.872 143.985 167.771C148.736 170.174 156.433 174.073 161.09 176.434L169.555 180.728L171.551 177.621C172.65 175.911 173.687 173.97 173.855 173.308C174.257 171.731 173.093 168.735 171.534 167.324C170.877 166.73 164.336 163.036 156.998 159.113ZM139.233 172.68C130.305 168.151 120.955 163.187 118.456 161.65C115.957 160.113 113.758 158.836 113.568 158.813C113.378 158.79 116.036 162.433 119.474 166.911L125.723 175.05L134.252 177.259C138.944 178.474 146.62 180.446 151.312 181.641C156.003 182.836 160.235 183.917 160.716 184.043C162.121 184.41 156.556 181.467 139.233 172.68ZM240.653 184.878C235.902 182.291 227.684 177.788 222.392 174.869C217.099 171.951 212.67 169.565 212.55 169.566C212.429 169.569 208.591 171.559 204.02 173.99L195.709 178.41L195.836 184.008C195.906 187.087 196.065 190.483 196.191 191.554L196.419 193.501L224.578 204.073L230.408 204.482C240.9 205.219 246.043 206.542 248.928 209.249C250.601 210.817 250.684 211.018 250.54 213.086C250.455 214.286 250.495 215.268 250.628 215.268C250.762 215.268 251.758 214.713 252.841 214.036C256.668 211.643 258.833 207.868 258.222 204.654C258.003 203.507 256.938 202.069 254.113 199.104C250.358 195.165 249.292 193.234 249.292 190.373C249.292 189.789 247.018 188.342 240.653 184.878ZM120.737 179.551L116.797 175.487C113.409 171.993 112.684 171.442 111.634 171.57C110.963 171.65 85.6214 174.148 55.32 177.12C25.0186 180.091 0.146792 182.601 0.0488119 182.697C-0.64755 183.384 6.26316 189.988 10.804 192.974L13.7452 194.909L25.079 193.464C62.4393 188.701 97.2083 188.185 123.317 192.005C129.405 192.897 131.54 193.378 133.44 192.918C134.973 192.546 136.352 191.559 139.532 189.679C143.237 187.488 145.534 185.886 145.162 185.754C144.815 185.632 139.179 184.186 132.635 182.541L120.737 179.551ZM180.618 193.7C180.618 193.153 177.818 192.326 167.168 189.727C159.77 187.921 153.465 186.429 153.157 186.408C152.848 186.389 149.305 188.638 145.284 191.408C141.261 194.177 137.926 196.468 137.872 196.5C137.629 196.643 141.912 212.116 143.485 216.778C147.135 227.603 150.748 231.606 161.551 236.797C165.742 238.811 178.637 244.163 179.297 244.163C179.743 244.163 188.929 237.3 188.929 236.967C188.929 236.815 185.78 232.551 181.931 227.494L174.932 218.297L177.776 206.343C179.339 199.768 180.618 194.079 180.618 193.7ZM241.42 193.388C239.993 192.595 238.709 191.759 238.565 191.531C238.114 190.812 237.497 191.082 237.788 191.872C238.269 193.175 240.565 196.291 241.044 196.291C241.296 196.291 242.068 195.963 242.759 195.561L244.014 194.829L241.42 193.388ZM107.647 192.754C107.483 192.587 105.775 192.384 103.851 192.301C95.5734 191.949 73.4652 192.014 66.016 192.412C49.1865 193.313 29.1193 195.197 17.3253 196.987C15.7147 197.23 15.6829 197.268 16.4116 198.063C17.5406 199.292 23.2838 202.822 27.7424 205.025C32.1821 207.219 42.6385 211.375 46.4479 212.458L48.9687 213.176L78.4569 203.117C94.6762 197.584 107.811 192.92 107.647 192.754ZM70.5302 218.475C86.9306 210.06 106.781 198.854 109.758 196.331C110.599 195.617 111.077 195.025 110.817 195.016C109.867 194.98 101.06 197.588 95.1037 199.669C82.475 204.081 53.331 215.846 53.331 216.531C53.331 216.693 56.4944 217.56 60.3603 218.457L67.39 220.087L70.5302 218.475ZM199.209 200.302L192.429 197.916C187.787 196.283 185.561 195.684 185.369 196.019C184.644 197.284 179.337 217.127 179.606 217.568C179.774 217.845 183.125 222.286 187.052 227.436C190.98 232.587 194.3 237.075 194.43 237.408C194.578 237.791 193.845 238.61 192.452 239.618C191.234 240.499 190.338 241.382 190.462 241.579C190.586 241.776 191.964 242.641 193.525 243.502C197.588 245.742 199.617 245.877 204.427 244.223C208.698 242.754 208.891 242.618 212.618 238.477L215.213 235.594L210.698 230.067C204.552 222.544 203.15 220.578 201.608 217.329C199.76 213.436 198.893 208.968 199.065 204.227L199.209 200.302ZM82.4825 217.609C95.1177 210.152 106.78 202.299 112.819 197.181C113.661 196.468 114.23 195.879 114.083 195.873C113.936 195.866 111.673 197.252 109.053 198.953C94.5018 208.399 82.9509 215.108 74.6505 218.934C72.0772 220.12 69.9676 221.213 69.9624 221.364C69.9571 221.515 71.0148 221.768 72.3126 221.928L74.672 222.22L82.4825 217.609ZM242.982 240.282C241.255 240.282 240.56 240.077 239.964 239.389C238.914 238.181 237.71 238.483 230.87 241.667L225.352 244.237L221.079 241.608L220.861 244.23C220.642 246.844 220.64 246.848 219.808 245.938C218.676 244.698 218.353 244.792 218.577 246.296C218.72 247.254 218.277 248.341 216.779 250.716C214.143 254.897 211.273 260.862 210.948 262.836C210.643 264.69 211.302 265.727 212.785 265.727C213.868 265.727 217.326 264.378 218.732 263.406C219.512 262.868 219.404 262.831 217.65 263.025C214.568 263.368 214.546 262.274 217.531 257.342C219.928 253.381 219.995 253.317 221.947 253.028C223.038 252.867 225.355 252.255 227.098 251.669C228.84 251.082 231.392 250.486 232.771 250.342C235.774 250.028 236.297 250.659 235.097 253.152L234.337 254.73L235.545 253.652C239.464 250.152 240.658 248.066 239.477 246.779C238.787 246.029 238.784 245.866 239.43 244.634C239.967 243.61 240.422 243.301 241.395 243.301C244.073 243.301 244.726 244.304 243.331 246.269C242.653 247.223 242.658 247.251 243.439 246.835C245.128 245.937 247.98 242.972 247.98 242.116C247.98 240.991 246.045 240.282 242.982 240.282ZM237.154 246.185C237.56 246.414 237.593 244.847 237.19 244.451C236.613 243.881 235.156 244.185 233.056 245.311C231.879 245.943 230.967 246.509 231.03 246.57C231.092 246.632 232.421 246.529 233.984 246.341C235.548 246.153 236.973 246.083 237.154 246.185ZM179.206 254.73C178.604 254.969 177.979 254.306 176.182 251.521C174.935 249.591 173.772 248.164 173.596 248.352C173.082 248.898 172.308 253.084 172.308 255.318C172.308 256.945 171.825 258.311 169.993 261.874C165.843 269.943 164.525 276.216 166.627 277.894C167.158 278.318 167.97 278.666 168.43 278.666C169.623 278.666 173.568 277.235 175.362 276.152L176.885 275.232L174.605 275.498C172.7 275.721 172.278 275.643 172.038 275.026C171.575 273.835 172.595 271.238 174.887 267.777C176.961 264.645 177.093 264.535 179.151 264.234C180.318 264.063 183.046 263.367 185.211 262.687C193.949 259.944 196.749 260.608 194.152 264.808L193.254 266.26L194.482 265.326C196.301 263.943 199.395 260.178 199.702 258.977C199.874 258.298 199.71 257.649 199.235 257.13C198.568 256.404 198.562 256.189 199.161 254.776C199.746 253.396 199.998 253.22 201.402 253.22C203.237 253.22 204.676 253.865 204.676 254.687C204.676 255.002 204.268 255.772 203.77 256.396C202.192 258.374 203.638 257.628 206.395 255.042C210.386 251.296 209.892 250.178 204.105 249.857C201.706 249.724 200.405 249.462 200.171 249.068C199.978 248.742 199.289 248.477 198.64 248.478C197.72 248.48 183.05 253.199 179.206 254.73ZM193.576 256.507C197.059 256.033 197.122 256.003 196.741 255C196.41 254.126 196.153 254.017 194.968 254.25C193.654 254.51 189.573 256.608 189.879 256.868C189.959 256.936 191.622 256.773 193.576 256.507Z" fill="#F01446"/>
<path d="M151.078 55.0487C200.629 83.8208 241.236 107.555 241.316 107.793C241.444 108.172 236.44 116.606 211.724 157.664L205.77 167.555L197.896 171.399C193.566 173.514 189.945 175.317 189.852 175.407C189.757 175.496 189.991 179.5 190.371 184.304C190.751 189.109 191.005 193.095 190.936 193.162C190.868 193.23 189.7 192.783 188.34 192.17C186.669 191.415 185.8 190.749 185.656 190.114C185.54 189.599 184.834 185.1 184.087 180.119L182.728 171.062L185.987 164.809C187.779 161.37 194.399 148.523 200.697 136.261C212.064 114.133 212.142 113.964 211.147 113.446C210.595 113.158 196.661 105.744 180.181 96.9696C163.701 88.1952 141.655 76.4641 131.19 70.9002C92.738 50.4569 87.839 47.4315 78.6494 38.4567C71.6228 31.5947 66.5781 23.8412 63.4886 15.1562C62.3737 12.0226 61.8278 9.90457 60.5156 3.61958C60.404 3.0861 60.4644 2.66862 60.6494 2.69234C60.8344 2.71606 101.527 26.2766 151.078 55.0487Z" fill="#F01446"/>
<path fill-rule="evenodd" clip-rule="evenodd" d="M206.185 47.1194C205.56 45.729 205.994 43.9136 207.092 43.3277C207.638 43.0365 208.213 42.7703 208.371 42.7365C208.527 42.7032 212.333 43.3368 216.826 44.1456C234.768 47.3747 249.962 52.0658 265.155 59.0658L271.672 62.0681L269.531 67.8663L265.864 66.0722C251.647 59.1177 235.441 53.7792 218.681 50.5296C207.356 48.3344 206.643 48.1394 206.185 47.1194ZM295.611 84.6809C296.403 84.244 297.832 86.0142 308.673 100.861C312.086 105.534 319.538 115.719 325.235 123.495L335.592 137.632L342.592 136.55C342.14 136.277 334.325 125.857 325.225 113.396C316.124 100.936 307.015 88.4872 304.981 85.7338C302.947 82.9804 301.254 80.4874 301.219 80.1932L295.611 84.6809ZM322.106 151.35C321.252 151.119 312.152 149.719 276.995 144.408C274.321 144.005 271.727 143.613 269.276 143.242L258.719 145.65C263.63 146.437 271.034 147.575 282.252 149.299L288.081 150.196C305.86 152.93 320.787 155.234 321.253 155.315L322.106 151.35ZM339.053 174.755C339.43 174.811 339.494 175.103 339.393 175.85C339.304 176.504 338.916 180.731 338.528 185.242C337.317 199.37 335.279 221.427 335.174 221.538L342.344 222.686C341.4 222.152 341.435 221.464 343.545 198.412C344.74 185.363 345.746 174.676 345.783 174.661L339.053 174.755ZM323.809 247.14L325.977 244.871L330.796 248.491L327.498 251.867C318.546 261.027 284.082 293.544 274.725 301.657C269.548 306.147 258.945 314.605 257.681 315.254C257.102 315.551 256.815 315.218 256.313 313.663L255.675 311.695L260.405 307.409C265.24 303.026 275.935 293.059 283.588 285.8C285.942 283.569 290.756 279.009 294.287 275.667C304.099 266.379 321.378 249.682 323.809 247.14ZM80.5635 112.995L77.3297 119.387C75.5507 122.903 73.2365 127.72 72.1869 130.091C69.8875 135.284 63.3591 153.283 62.8578 155.812C62.6325 156.949 62.2101 157.649 61.7168 157.705C60.7329 157.815 58.2353 159.689 56.7321 161.443C56.1018 162.179 55.4748 162.693 55.3389 162.586C54.1963 161.679 58.799 144.316 64.291 130.96C66.1912 126.338 69.7838 119.915 72.3488 115.329L72.3559 115.317L72.3585 115.312L72.3603 115.309L72.3651 115.3C72.7951 114.532 73.1958 113.815 73.5547 113.168L75.3174 109.988L80.5635 112.995ZM104.282 295.158C104.132 293.836 104.329 293.15 105.037 292.531C107.058 290.762 107.713 291.107 118.173 299.452C123.686 303.849 131.002 309.305 134.431 311.575C137.861 313.843 140.817 315.989 141.002 316.343C141.847 317.959 140.261 320.4 138.222 320.624C137.034 320.755 135.567 320.05 131.113 317.207C123.548 312.378 117.328 307.791 110.327 301.88C104.975 297.361 104.468 296.798 104.282 295.158Z" fill="#F01446"/>
<path d="M265.688 224.006L263.911 234.254C267.883 229.877 270.028 228.556 270.551 227.931C271.278 227.013 272.403 225.777 274.154 223.89C276.826 221.013 279.24 218.482 279.52 218.267C279.801 218.051 282.779 218.918 286.139 220.194C308.841 228.813 315.403 231.078 316.093 230.535C316.989 229.83 317.026 227.769 316.153 227.219C315.788 226.988 308.18 224.06 299.247 220.712C290.314 217.363 283.062 214.567 283.134 214.496C284.245 213.399 295.977 201.124 301.25 195.54C305.071 191.495 310.972 185.264 314.362 181.692C317.752 178.12 321.612 173.91 322.938 172.337L325.351 169.478L322.813 164.052L314.672 172.704C295.4 193.187 279.484 209.972 277.488 211.919L273.821 215.606L269.592 220.084L269.584 220.093C267.548 222.249 266.448 223.414 265.688 224.006Z" fill="#F01446"/>
<path d="M273.476 83.7412L274.427 82.1772L279.483 85.7851L278.362 87.404C277.746 88.2943 274.598 92.7915 271.366 97.3967C269.173 100.521 263.93 109.268 263.434 110.241L266.325 94.1836C269.736 89.3008 272.953 84.6018 273.476 83.7412Z" fill="#F01446"/>
<path fill-rule="evenodd" clip-rule="evenodd" d="M207.641 275.365L211.493 271.035L215.108 274.149L211.251 278.401L207.641 275.365ZM213.926 280.774L217.776 276.446L220.839 279.085L216.989 283.412L213.926 280.774ZM219.659 285.712L223.509 281.385L226.571 284.023L222.721 288.35L219.659 285.712ZM225.465 290.646L229.239 286.321L232.854 289.435L229.001 293.765L225.465 290.646ZM190.656 275.747L193.82 272.19L198.221 275.981L195.051 279.461L190.656 275.747ZM226.541 306.587L229.627 303.035L234.028 306.825L230.863 310.383L226.541 306.587ZM185.64 281.386L188.321 278.372L192.719 282.16L190.038 285.174L185.64 281.386ZM221.449 312.233L224.131 309.219L228.528 313.008L225.847 316.021L221.449 312.233ZM180.621 287.027L183.303 284.013L187.7 287.802L185.019 290.815L180.621 287.027ZM216.431 317.874L219.112 314.86L223.51 318.649L220.829 321.662L216.431 317.874ZM175.122 293.209L178.286 289.652L182.608 293.448L179.523 297L175.122 293.209ZM212.467 322.331C213.311 321.381 214.046 320.602 214.1 320.598C214.154 320.595 215.164 321.424 216.345 322.441L218.491 324.29L215.329 327.845L210.932 324.056L212.467 322.331ZM176.296 310.6L180.148 306.27L183.685 309.389L179.911 313.714L176.296 310.6ZM182.578 316.012L186.428 311.684L189.491 314.323L185.641 318.65L182.578 316.012ZM188.311 320.95L192.161 316.623L195.224 319.261L191.374 323.588L188.311 320.95ZM195.923 323.776C196.956 322.614 197.846 321.661 197.9 321.657C197.954 321.654 198.787 322.331 199.752 323.162L201.506 324.673L197.656 329L194.044 325.888L195.923 323.776Z" fill="#F01446"/>
<path fill-rule="evenodd" clip-rule="evenodd" d="M203.369 275.256C202.862 275.056 202.272 275.059 201.78 275.265L201.317 275.458L179.246 300.268L179.126 300.766C179.047 301.093 179.065 301.456 179.18 301.823L179.354 302.383L191.748 313.098C200.625 320.772 204.265 323.876 204.572 324.032C205.124 324.313 205.743 324.352 206.282 324.141C206.704 323.975 206.826 323.84 217.854 311.404L229 298.834L229.02 298.327C229.031 298.048 228.982 297.647 228.911 297.436C228.784 297.057 228.628 296.919 216.23 286.215C207.592 278.757 203.581 275.339 203.369 275.256ZM197.36 293.939C203.078 287.511 202.857 287.728 203.548 287.881C203.821 287.942 204.713 288.681 209.883 293.13L215.902 298.309L216.011 298.716C216.208 299.443 216.311 299.311 210.637 305.642C205.78 311.06 205.465 311.396 205.149 311.483C204.458 311.672 204.611 311.787 198.186 306.253C192.888 301.689 192.27 301.134 192.128 300.811C191.823 300.117 191.583 300.432 197.36 293.939Z" fill="#F01446"/>
<path fill-rule="evenodd" clip-rule="evenodd" d="M332.116 145.789L331.88 142.769L334.401 142.578L334.606 145.572L332.116 145.789ZM336.497 145.456L336.261 142.438L338.398 142.276L338.633 145.294L336.497 145.456ZM340.495 145.153L340.26 142.135L342.396 141.974L342.631 144.992L340.495 145.153ZM344.519 144.822L344.256 141.833L346.777 141.642L347.013 144.662L344.519 144.822ZM326.007 152.215L325.813 149.734L328.882 149.501L329.044 151.956L326.007 152.215ZM351.007 150.294L350.786 147.844L353.855 147.612L354.049 150.093L351.007 150.294ZM326.314 156.147L326.15 154.045L329.217 153.813L329.381 155.915L326.314 156.147ZM351.289 154.258L351.125 152.156L354.192 151.924L354.356 154.026L351.289 154.258ZM326.621 160.081L326.457 157.98L329.524 157.747L329.688 159.849L326.621 160.081ZM351.596 158.192L351.432 156.09L354.499 155.858L354.663 157.96L351.596 158.192ZM326.958 164.393L326.764 161.912L329.806 161.711L330.027 164.161L326.958 164.393ZM351.839 161.3C351.787 160.638 351.76 160.079 351.779 160.058C351.797 160.036 352.486 159.968 353.309 159.906L354.806 159.793L355 162.272L351.933 162.504L351.839 161.3ZM334.036 170.363L333.8 167.343L336.294 167.183L336.557 170.172L334.036 170.363ZM338.417 170.032L338.181 167.014L340.317 166.852L340.553 169.87L338.417 170.032ZM342.415 169.729L342.18 166.711L344.316 166.55L344.551 169.568L342.415 169.729ZM346.298 167.954C346.235 167.143 346.199 166.463 346.217 166.442C346.236 166.421 346.801 166.362 347.474 166.311L348.697 166.218L348.933 169.236L346.414 169.427L346.298 167.954Z" fill="#F01446"/>
<path fill-rule="evenodd" clip-rule="evenodd" d="M330.501 147.33C330.238 147.444 330.022 147.663 329.919 147.921L329.822 148.163L331.174 165.467L331.32 165.694C331.416 165.844 331.561 165.971 331.744 166.064L332.022 166.206L340.681 165.566C346.882 165.108 349.409 164.904 349.582 164.848C349.892 164.747 350.135 164.532 350.253 164.255C350.345 164.038 350.338 163.943 349.648 155.283L348.95 146.53L348.763 146.335C348.661 146.229 348.49 146.099 348.383 146.047C348.191 145.955 348.081 145.962 339.425 146.607C333.394 147.057 330.611 147.282 330.501 147.33ZM335.427 156.434C335.076 151.951 335.078 152.112 335.391 151.913C335.514 151.834 336.126 151.777 339.73 151.502L343.925 151.183L344.121 151.292C344.471 151.487 344.459 151.4 344.788 155.831C345.07 159.624 345.082 159.864 344.999 160.013C344.817 160.338 344.917 160.324 340.436 160.663C336.741 160.942 336.301 160.966 336.126 160.9C335.748 160.758 335.78 160.963 335.427 156.434Z" fill="#F01446"/>
<path fill-rule="evenodd" clip-rule="evenodd" d="M340.555 230.898L342.532 231.439L342.08 233.037L340.128 232.483L340.555 230.898ZM339.771 233.675L341.747 234.217L341.364 235.57L339.388 235.029L339.771 233.675ZM339.054 236.21L341.03 236.751L340.647 238.105L338.672 237.564L339.054 236.21ZM338.35 238.766L340.314 239.284L339.862 240.882L337.885 240.341L338.35 238.766ZM337.853 225.669L339.477 226.114L338.927 228.059L337.327 227.601L337.853 225.669ZM333.39 241.522L335 241.943L334.45 243.889L332.826 243.444L333.39 241.522ZM335.279 224.964L336.655 225.341L336.105 227.285L334.729 226.908L335.279 224.964ZM330.801 240.795L332.177 241.172L331.628 243.116L330.252 242.739L330.801 240.795ZM332.703 224.259L334.079 224.636L333.529 226.58L332.153 226.203L332.703 224.259ZM328.226 240.089L329.602 240.466L329.052 242.41L327.676 242.034L328.226 240.089ZM329.881 223.486L331.505 223.931L330.941 225.852L329.331 225.431L329.881 223.486ZM326.192 239.532C326.625 239.651 326.987 239.761 326.996 239.778C327.006 239.794 326.893 240.234 326.745 240.756L326.477 241.705L324.854 241.261L325.404 239.316L326.192 239.532ZM324.469 226.492L326.446 227.034L325.98 228.608L324.017 228.09L324.469 226.492ZM323.684 229.27L325.659 229.811L325.276 231.165L323.301 230.624L323.684 229.27ZM322.967 231.804L324.943 232.345L324.56 233.699L322.584 233.158L322.967 231.804ZM323.214 234.602C323.745 234.748 324.186 234.88 324.196 234.896C324.205 234.912 324.114 235.274 323.993 235.701L323.774 236.476L321.798 235.935L322.25 234.338L323.214 234.602Z" fill="#F01446"/>
<path fill-rule="evenodd" clip-rule="evenodd" d="M339.942 229.551C339.929 229.363 339.838 229.18 339.698 229.058L339.565 228.943L328.238 225.841L328.06 225.88C327.943 225.905 327.829 225.966 327.728 226.057L327.575 226.196L326.013 231.681C324.894 235.61 324.449 237.214 324.446 237.333C324.439 237.548 324.521 237.746 324.67 237.882C324.788 237.988 324.85 238.006 330.522 239.55L336.255 241.11L336.421 241.039C336.512 241 336.634 240.924 336.691 240.87C336.794 240.773 336.814 240.704 338.372 235.219C339.457 231.398 339.947 229.63 339.942 229.551ZM333.024 230.518C335.958 231.322 335.855 231.286 335.911 231.525C335.933 231.619 335.83 232.009 335.185 234.294L334.435 236.953L334.321 237.049C334.117 237.221 334.175 237.233 331.278 236.428C328.799 235.74 328.643 235.692 328.567 235.607C328.401 235.421 328.388 235.486 329.191 232.646C329.853 230.304 329.938 230.027 330.02 229.934C330.197 229.733 330.059 229.706 333.024 230.518Z" fill="#F01446"/>
<path fill-rule="evenodd" clip-rule="evenodd" d="M286.867 61.8498L288.238 60.0852L289.711 61.1935L288.336 62.9284L286.867 61.8498ZM289.428 63.7748L290.798 62.0114L292.046 62.9504L290.676 64.7138L289.428 63.7748ZM291.764 65.5324L293.134 63.769L294.382 64.708L293.012 66.4714L291.764 65.5324ZM294.129 67.2863L295.469 65.5258L296.943 66.6342L295.571 68.3988L294.129 67.2863ZM280.336 62.4242L281.462 60.9747L283.256 62.3239L282.125 63.7438L280.336 62.4242ZM294.957 73.3986L296.053 71.9529L297.846 73.3021L296.72 74.7516L294.957 73.3986ZM278.551 64.7219L279.505 63.4939L281.297 64.8422L280.343 66.0703L278.551 64.7219ZM293.143 75.701L294.097 74.473L295.889 75.8213L294.935 77.0493L293.143 75.701ZM276.764 67.0207L277.719 65.7926L279.511 67.1409L278.556 68.369L276.764 67.0207ZM291.357 77.9998L292.311 76.7717L294.103 78.12L293.149 79.3481L291.357 77.9998ZM274.807 69.5398L275.933 68.0903L277.696 69.4433L276.6 70.889L274.807 69.5398ZM289.946 79.8157C290.246 79.4288 290.509 79.1102 290.53 79.1075C290.55 79.1047 290.961 79.3986 291.442 79.7606L292.317 80.4187L291.191 81.8672L289.399 80.5189L289.946 79.8157ZM275.711 76.2078L277.082 74.4432L278.525 75.5556L277.184 77.3161L275.711 76.2078ZM278.271 78.1339L279.641 76.3705L280.889 77.3095L279.519 79.0729L278.271 78.1339ZM280.607 79.8915L281.977 78.1281L283.225 79.0671L281.855 80.8306L280.607 79.8915ZM283.612 80.7885C283.98 80.3151 284.298 79.9255 284.318 79.9228C284.339 79.9201 284.678 80.1598 285.071 80.4556L285.785 80.9933L284.415 82.7567L282.943 81.6492L283.612 80.7885Z" fill="#F01446"/>
<path fill-rule="evenodd" clip-rule="evenodd" d="M285.219 61.9152C285.019 61.8511 284.792 61.8671 284.608 61.9585L284.434 62.0446L276.579 72.1544L276.545 72.3493C276.523 72.4772 276.54 72.6165 276.594 72.7551L276.675 72.9662L281.727 76.7812C285.345 79.5134 286.827 80.617 286.95 80.6696C287.169 80.7639 287.409 80.7634 287.611 80.6684C287.769 80.5939 287.813 80.5388 291.737 75.472L295.703 70.351L295.697 70.1552C295.694 70.0475 295.665 69.8943 295.632 69.8147C295.573 69.6718 295.51 69.6228 290.457 65.8122C286.937 63.1575 285.303 61.9421 285.219 61.9152ZM283.39 69.2615C285.425 66.6422 285.346 66.7312 285.616 66.7729C285.723 66.7893 286.086 67.0518 288.192 68.6351L290.645 70.4782L290.697 70.632C290.792 70.9074 290.828 70.8537 288.807 73.4345C287.078 75.6435 286.965 75.7809 286.846 75.8221C286.585 75.9124 286.647 75.9528 284.028 73.983C281.87 72.3586 281.617 72.1603 281.554 72.0396C281.418 71.7802 281.334 71.9076 283.39 69.2615Z" fill="#F01446"/>
</svg>
