<svg width="384" height="358" viewBox="0 0 384 358" fill="none" xmlns="http://www.w3.org/2000/svg">
<path d="M288.592 247.075L283.404 242.82C283.062 243.09 279.795 246.122 276.606 249.902L281.509 253.929C285.746 249.185 288.034 247.753 288.592 247.075Z" fill="#F01446"/>
<path d="M288.592 247.075L283.404 242.82C283.062 243.09 279.795 246.122 276.606 249.902L281.509 253.929C285.746 249.185 288.034 247.753 288.592 247.075Z" fill="#F01446"/>
<path d="M348.28 167.539C348.24 167.18 348.502 166.856 348.864 166.816L352.148 166.448C352.511 166.408 352.837 166.666 352.877 167.025C352.918 167.384 352.656 167.707 352.293 167.748L349.01 168.115C348.647 168.156 348.321 167.898 348.28 167.539Z" fill="#F01446"/>
<path d="M378.632 171.381C378.592 171.022 378.854 170.698 379.216 170.657L382.5 170.29C382.863 170.249 383.189 170.508 383.229 170.866C383.269 171.225 383.008 171.549 382.645 171.59L379.362 171.957C378.999 171.998 378.672 171.74 378.632 171.381Z" fill="#F01446"/>
<path d="M378.051 166.182C378.011 165.823 378.272 165.5 378.635 165.459L381.918 165.092C382.281 165.051 382.608 165.309 382.648 165.668C382.688 166.027 382.426 166.351 382.064 166.391L378.78 166.759C378.417 166.799 378.091 166.541 378.051 166.182Z" fill="#F01446"/>
<path d="M378.341 168.782C378.301 168.423 378.563 168.099 378.925 168.058L382.209 167.691C382.572 167.65 382.898 167.908 382.938 168.267C382.979 168.626 382.717 168.95 382.354 168.99L379.071 169.358C378.708 169.398 378.382 169.14 378.341 168.782Z" fill="#F01446"/>
<path d="M377.76 163.583C377.72 163.224 377.981 162.901 378.344 162.86L381.628 162.493C381.99 162.452 382.317 162.71 382.357 163.069C382.397 163.428 382.136 163.752 381.773 163.792L378.489 164.16C378.127 164.2 377.8 163.942 377.76 163.583Z" fill="#F01446"/>
<path d="M360.543 158.278C360.18 158.315 359.856 158.054 359.819 157.695L359.488 154.443C359.452 154.083 359.716 153.762 360.079 153.725C360.442 153.688 360.766 153.949 360.803 154.308L361.134 157.561C361.171 157.92 360.906 158.241 360.543 158.278Z" fill="#F01446"/>
<path d="M369.068 186.931C368.705 186.968 368.381 186.707 368.344 186.348L368.013 183.095C367.976 182.736 368.241 182.415 368.604 182.378C368.967 182.341 369.291 182.602 369.328 182.961L369.659 186.214C369.696 186.573 369.431 186.894 369.068 186.931Z" fill="#F01446"/>
<path d="M363.17 157.984C362.807 158.022 362.483 157.76 362.446 157.401L362.115 154.149C362.078 153.789 362.343 153.468 362.706 153.431C363.069 153.394 363.393 153.655 363.43 154.014L363.761 157.267C363.798 157.626 363.533 157.947 363.17 157.984Z" fill="#F01446"/>
<path d="M365.797 157.691C365.434 157.728 365.11 157.466 365.073 157.107L364.742 153.855C364.705 153.496 364.97 153.174 365.333 153.137C365.696 153.1 366.02 153.361 366.057 153.721L366.388 156.973C366.425 157.332 366.16 157.654 365.797 157.691Z" fill="#F01446"/>
<path d="M368.424 157.397C368.061 157.434 367.737 157.173 367.7 156.813L367.369 153.561C367.332 153.202 367.597 152.88 367.96 152.843C368.323 152.806 368.647 153.067 368.683 153.427L369.015 156.679C369.051 157.038 368.787 157.36 368.424 157.397Z" fill="#F01446"/>
<path d="M349.153 175.337C349.113 174.978 349.374 174.654 349.737 174.613L353.02 174.246C353.383 174.205 353.71 174.463 353.75 174.822C353.79 175.181 353.528 175.505 353.166 175.546L349.882 175.913C349.52 175.953 349.193 175.695 349.153 175.337Z" fill="#F01446"/>
<path d="M348.862 172.737C348.822 172.378 349.083 172.055 349.446 172.014L352.73 171.647C353.092 171.606 353.419 171.864 353.459 172.223C353.499 172.582 353.238 172.906 352.875 172.946L349.591 173.314C349.229 173.354 348.902 173.096 348.862 172.737Z" fill="#F01446"/>
<path d="M348.571 170.138C348.531 169.779 348.793 169.456 349.155 169.415L352.439 169.048C352.802 169.007 353.128 169.265 353.168 169.624C353.208 169.983 352.947 170.307 352.584 170.347L349.301 170.715C348.938 170.755 348.611 170.497 348.571 170.138Z" fill="#F01446"/>
<path d="M363.814 187.519C363.451 187.556 363.127 187.295 363.091 186.936L362.759 183.683C362.723 183.324 362.987 183.003 363.35 182.966C363.714 182.929 364.038 183.19 364.074 183.549L364.405 186.801C364.442 187.161 364.177 187.482 363.814 187.519Z" fill="#F01446"/>
<path d="M366.441 187.225C366.078 187.262 365.754 187.001 365.717 186.642L365.386 183.389C365.35 183.03 365.614 182.709 365.977 182.672C366.34 182.635 366.664 182.896 366.701 183.255L367.032 186.507C367.069 186.867 366.804 187.188 366.441 187.225Z" fill="#F01446"/>
<path d="M371.695 186.637C371.332 186.674 371.008 186.413 370.971 186.054L370.64 182.802C370.603 182.442 370.868 182.121 371.231 182.084C371.594 182.047 371.918 182.308 371.955 182.667L372.286 185.92C372.323 186.279 372.058 186.6 371.695 186.637Z" fill="#F01446"/>
<path d="M344.867 254.704C344.839 254.452 345.022 254.226 345.277 254.197L347.584 253.939C347.839 253.911 348.068 254.091 348.096 254.342C348.125 254.594 347.941 254.821 347.686 254.849L345.379 255.107C345.124 255.136 344.895 254.955 344.867 254.704Z" fill="#F01446"/>
<path d="M366.189 257.386C366.161 257.135 366.345 256.908 366.6 256.879L368.907 256.621C369.162 256.593 369.391 256.773 369.419 257.025C369.447 257.276 369.264 257.503 369.009 257.531L366.702 257.789C366.447 257.818 366.218 257.637 366.189 257.386Z" fill="#F01446"/>
<path d="M365.782 253.746C365.754 253.495 365.938 253.268 366.193 253.239L368.5 252.981C368.755 252.953 368.984 253.133 369.012 253.385C369.04 253.636 368.856 253.863 368.601 253.891L366.295 254.149C366.04 254.178 365.81 253.997 365.782 253.746Z" fill="#F01446"/>
<path d="M365.986 255.566C365.958 255.315 366.142 255.088 366.396 255.059L368.703 254.801C368.958 254.773 369.187 254.953 369.216 255.205C369.244 255.456 369.06 255.683 368.805 255.711L366.498 255.969C366.243 255.998 366.014 255.817 365.986 255.566Z" fill="#F01446"/>
<path d="M365.579 251.926C365.55 251.675 365.734 251.448 365.989 251.419L368.296 251.161C368.551 251.133 368.78 251.313 368.808 251.565C368.836 251.816 368.653 252.043 368.398 252.071L366.091 252.329C365.836 252.358 365.607 252.177 365.579 251.926Z" fill="#F01446"/>
<path d="M353.484 248.216C353.229 248.242 353.002 248.059 352.976 247.807L352.744 245.53C352.718 245.278 352.904 245.053 353.16 245.027C353.415 245.001 353.642 245.184 353.668 245.436L353.9 247.713C353.925 247.965 353.739 248.19 353.484 248.216Z" fill="#F01446"/>
<path d="M359.466 268.278C359.211 268.304 358.983 268.121 358.958 267.869L358.726 265.592C358.7 265.34 358.886 265.115 359.141 265.089C359.396 265.063 359.624 265.246 359.65 265.498L359.881 267.775C359.907 268.027 359.721 268.252 359.466 268.278Z" fill="#F01446"/>
<path d="M355.33 248.009C355.075 248.035 354.847 247.852 354.822 247.601L354.59 245.323C354.564 245.072 354.75 244.847 355.005 244.821C355.26 244.795 355.488 244.978 355.513 245.229L355.745 247.507C355.771 247.758 355.585 247.983 355.33 248.009Z" fill="#F01446"/>
<path d="M357.175 247.803C356.92 247.829 356.693 247.646 356.667 247.394L356.435 245.117C356.41 244.865 356.596 244.64 356.851 244.614C357.106 244.588 357.333 244.771 357.359 245.023L357.591 247.3C357.616 247.552 357.43 247.777 357.175 247.803Z" fill="#F01446"/>
<path d="M359.021 247.596C358.766 247.622 358.538 247.439 358.513 247.188L358.281 244.91C358.255 244.659 358.441 244.434 358.696 244.408C358.951 244.382 359.179 244.565 359.205 244.816L359.436 247.094C359.462 247.345 359.276 247.57 359.021 247.596Z" fill="#F01446"/>
<path d="M345.477 260.164C345.449 259.912 345.633 259.686 345.888 259.657L348.195 259.399C348.45 259.371 348.679 259.551 348.707 259.802C348.735 260.054 348.552 260.281 348.297 260.309L345.99 260.567C345.735 260.596 345.506 260.415 345.477 260.164Z" fill="#F01446"/>
<path d="M345.274 258.344C345.246 258.092 345.43 257.866 345.684 257.837L347.991 257.579C348.246 257.551 348.476 257.731 348.504 257.982C348.532 258.234 348.348 258.461 348.093 258.489L345.786 258.747C345.531 258.776 345.302 258.595 345.274 258.344Z" fill="#F01446"/>
<path d="M345.07 256.524C345.042 256.272 345.226 256.046 345.481 256.017L347.788 255.759C348.043 255.731 348.272 255.911 348.3 256.162C348.328 256.414 348.144 256.641 347.89 256.669L345.583 256.927C345.328 256.956 345.098 256.775 345.07 256.524Z" fill="#F01446"/>
<path d="M355.775 268.691C355.52 268.717 355.292 268.534 355.267 268.282L355.035 266.005C355.009 265.753 355.195 265.528 355.45 265.502C355.705 265.476 355.933 265.659 355.958 265.911L356.19 268.188C356.216 268.44 356.03 268.665 355.775 268.691Z" fill="#F01446"/>
<path d="M357.62 268.484C357.365 268.51 357.138 268.328 357.112 268.076L356.88 265.799C356.855 265.547 357.041 265.322 357.296 265.296C357.551 265.27 357.778 265.453 357.804 265.704L358.036 267.982C358.062 268.233 357.876 268.458 357.62 268.484Z" fill="#F01446"/>
<path d="M361.312 268.071C361.056 268.097 360.829 267.915 360.803 267.663L360.571 265.386C360.546 265.134 360.732 264.909 360.987 264.883C361.242 264.857 361.47 265.04 361.495 265.291L361.727 267.569C361.753 267.82 361.567 268.045 361.312 268.071Z" fill="#F01446"/>
<path fill-rule="evenodd" clip-rule="evenodd" d="M257.767 111.331C257.897 111.331 230.862 86.2146 197.688 55.5163C164.514 24.818 137.243 -0.164214 137.087 0.000812922C136.562 0.551063 135.326 6.33308 134.773 10.822C133.694 19.5825 135.072 29.0877 138.554 36.8888L140.019 40.1716L147.56 44.7325C170.962 58.8837 181.683 65.3749 198.494 75.5678C243.403 102.798 257.546 111.331 257.767 111.331ZM174.465 103.942C136.552 83.332 82.79 54.075 76.717 50.7488C74.664 49.624 72.9069 48.7002 72.8121 48.6951C72.7179 48.6904 73.2251 49.4758 73.9399 50.4398C88.9624 70.7012 113.628 89.8256 148.104 107.94C157.402 112.826 208.307 138.446 208.716 138.446C209.026 138.446 212.717 132.45 213.215 131.137C213.871 129.411 212.965 126.527 211.181 124.654C210.199 123.624 197.686 116.565 174.465 103.942ZM151.37 115.052C138.539 108.023 116.808 96.1083 103.078 88.575C89.3497 81.0418 77.9567 74.8754 77.7616 74.8722C77.3231 74.8652 81.1099 80.1671 85.771 86.0865C90.0272 91.4913 99.5571 101.097 104.945 105.413C110.824 110.123 122.35 117.669 131.073 122.519C136.482 125.526 193.172 154.434 198.79 157.05C198.953 157.126 200.173 155.443 201.5 153.31C204.255 148.884 204.398 147.259 202.309 144.096C202.191 143.917 202.115 143.772 202.03 143.633C201.208 142.29 199.561 141.452 151.37 115.052ZM188.233 160.93C186.435 159.906 163.127 146.855 136.439 131.928C109.751 117.002 87.85 104.789 87.7707 104.788C87.515 104.785 88.2485 105.867 91.5739 110.396C102.297 125.003 114.434 136.146 130.663 146.281C139.472 151.783 148.219 156.521 171.433 168.365C178.618 172.031 185.578 175.638 186.901 176.381L189.304 177.732L191.711 173.867C193.839 170.45 194.094 169.772 193.913 168.01C193.615 165.11 191.971 163.06 188.233 160.93ZM285.527 137.688L275.372 128.046C269.786 122.743 265.013 118.458 264.766 118.524C264.519 118.59 258.574 128.096 251.555 139.648C244.536 151.2 237.007 163.573 234.826 167.143C232.643 170.712 231.135 173.526 231.473 173.395C231.812 173.265 244.112 165.177 258.808 155.423L285.527 137.688ZM167.467 172.477C150.987 163.526 113.468 143.086 101.919 136.767C97.5615 134.383 93.9231 132.504 93.8354 132.592C93.582 132.846 101.981 145.3 105.192 149.432C110.6 156.392 116.378 161.214 126.874 167.522C132.776 171.07 136.931 173.3 153.586 181.862C158.654 184.467 166.864 188.693 171.831 191.253L180.861 195.907L182.99 192.539C184.162 190.686 185.268 188.582 185.448 187.864C185.876 186.155 184.635 182.907 182.972 181.378C182.271 180.734 175.294 176.729 167.467 172.477ZM148.517 187.183C138.994 182.274 129.02 176.893 126.355 175.227C123.689 173.561 121.343 172.177 121.141 172.152C120.938 172.127 123.773 176.076 127.44 180.93L134.106 189.753L143.204 192.147C148.209 193.464 156.397 195.602 161.401 196.897C166.405 198.193 170.919 199.364 171.433 199.501C172.931 199.899 166.995 196.708 148.517 187.183ZM256.7 200.406C251.632 197.602 242.866 192.72 237.221 189.556C231.575 186.393 226.851 183.807 226.723 183.808C226.594 183.811 222.5 185.968 217.624 188.604L208.759 193.395L208.894 199.463C208.969 202.801 209.139 206.482 209.273 207.643L209.516 209.753L239.553 221.213L245.772 221.657C256.963 222.455 262.449 223.89 265.527 226.824C267.311 228.524 267.4 228.742 267.246 230.983C267.156 232.284 267.198 233.349 267.34 233.349C267.483 233.348 268.545 232.747 269.701 232.013C273.783 229.419 276.092 225.327 275.44 221.843C275.207 220.6 274.071 219.041 271.057 215.827C267.052 211.557 265.915 209.464 265.915 206.362C265.915 205.729 263.489 204.161 256.7 200.406ZM128.788 194.632L124.585 190.226C120.971 186.439 120.198 185.842 119.078 185.98C118.362 186.067 91.3308 188.775 59.0088 191.996C26.6869 195.217 0.156581 197.938 0.0520668 198.042C-0.69073 198.787 6.68081 205.945 11.5244 209.182L14.6617 211.28L26.7513 209.713C66.6029 204.55 103.69 203.991 131.54 208.132C138.034 209.098 140.312 209.621 142.338 209.121C143.973 208.718 145.444 207.649 148.836 205.61C152.788 203.235 155.238 201.499 154.841 201.356C154.471 201.223 148.459 199.656 141.479 197.873L128.788 194.632ZM192.662 209.969C192.662 209.376 189.675 208.48 178.315 205.662C170.423 203.705 163.698 202.087 163.369 202.065C163.04 202.044 159.261 204.482 154.971 207.484C150.68 210.486 147.123 212.97 147.065 213.004C146.806 213.159 151.375 229.932 153.052 234.985C156.946 246.72 160.8 251.059 172.323 256.686C176.794 258.869 190.549 264.671 191.253 264.671C191.728 264.671 201.527 257.231 201.527 256.87C201.527 256.705 198.168 252.083 194.062 246.601L186.597 236.632L189.63 223.674C191.297 216.547 192.662 210.38 192.662 209.969ZM257.518 209.631C255.996 208.771 254.626 207.865 254.473 207.618C253.992 206.838 253.333 207.131 253.644 207.987C254.157 209.4 256.606 212.778 257.117 212.778C257.386 212.778 258.209 212.422 258.946 211.986L260.285 211.193L257.518 209.631ZM114.825 208.944C114.65 208.763 112.828 208.542 110.776 208.453C101.946 208.071 78.364 208.141 70.4181 208.573C52.4664 209.549 31.061 211.592 18.4806 213.532C16.7626 213.796 16.7286 213.837 17.5059 214.698C18.7102 216.031 24.8364 219.857 29.5923 222.245C34.3281 224.624 45.4817 229.128 49.5451 230.303L52.234 231.081L83.6886 220.177C100.989 214.179 115 209.124 114.825 208.944ZM75.2333 236.825C92.7273 227.703 113.901 215.556 117.076 212.821C117.974 212.047 118.483 211.405 118.206 211.395C117.193 211.357 107.798 214.184 101.445 216.439C87.9746 221.222 56.8872 233.975 56.8872 234.718C56.8872 234.893 60.2616 235.833 64.3852 236.805L71.8837 238.572L75.2333 236.825ZM212.492 217.125L205.26 214.539C200.309 212.769 197.934 212.12 197.729 212.483C196.956 213.854 191.295 235.364 191.582 235.842C191.761 236.142 195.336 240.956 199.525 246.539C203.715 252.122 207.256 256.987 207.395 257.348C207.553 257.763 206.771 258.651 205.285 259.744C203.986 260.699 203.03 261.656 203.162 261.869C203.294 262.083 204.764 263.021 206.429 263.954C210.763 266.382 212.927 266.528 218.058 264.735C222.614 263.143 222.82 262.996 226.796 258.507L229.564 255.382L224.747 249.391C218.192 241.236 216.696 239.105 215.051 235.583C213.08 231.363 212.155 226.519 212.339 221.38L212.492 217.125ZM87.9826 235.886C101.46 227.803 113.9 219.29 120.342 213.742C121.24 212.969 121.847 212.331 121.69 212.324C121.533 212.317 119.119 213.819 116.324 215.663C100.803 225.903 88.4823 233.175 79.6284 237.322C76.8835 238.608 74.6332 239.793 74.6276 239.956C74.622 240.12 75.7502 240.395 77.1346 240.568L79.6513 240.884L87.9826 235.886ZM259.184 260.463C257.342 260.463 256.601 260.241 255.965 259.496C254.845 258.186 253.561 258.513 246.265 261.965L240.379 264.751L235.821 261.901L235.588 264.743C235.355 267.577 235.352 267.581 234.465 266.595C233.257 265.25 232.913 265.352 233.152 266.983C233.304 268.021 232.832 269.199 231.234 271.774C228.422 276.306 225.361 282.772 225.014 284.912C224.689 286.922 225.392 288.046 226.974 288.046C228.129 288.046 231.817 286.583 233.317 285.53C234.149 284.946 234.034 284.906 232.163 285.117C228.876 285.488 228.852 284.303 232.036 278.956C234.593 274.663 234.664 274.593 236.747 274.28C237.91 274.105 240.382 273.442 242.241 272.807C244.099 272.171 246.821 271.524 248.292 271.368C251.496 271.028 252.053 271.712 250.773 274.414L249.963 276.125L251.251 274.956C255.432 271.162 256.705 268.901 255.445 267.506C254.71 266.693 254.706 266.516 255.395 265.181C255.968 264.071 256.454 263.736 257.491 263.736C260.348 263.736 261.045 264.823 259.556 266.953C258.833 267.988 258.839 268.018 259.672 267.567C261.473 266.593 264.516 263.379 264.516 262.451C264.516 261.232 262.452 260.463 259.184 260.463ZM252.968 266.862C253.401 267.111 253.436 265.412 253.006 264.983C252.39 264.365 250.836 264.694 248.596 265.915C247.341 266.6 246.368 267.214 246.435 267.28C246.501 267.347 247.919 267.235 249.586 267.031C251.254 266.828 252.775 266.752 252.968 266.862ZM191.155 276.125C190.513 276.384 189.847 275.665 187.93 272.647C186.6 270.554 185.359 269.008 185.171 269.211C184.623 269.803 183.797 274.341 183.797 276.762C183.797 278.526 183.282 280.007 181.328 283.869C176.901 292.616 175.496 299.416 177.738 301.235C178.304 301.694 179.17 302.071 179.661 302.071C180.933 302.071 185.141 300.52 187.055 299.346L188.68 298.349L186.248 298.637C184.216 298.879 183.766 298.795 183.51 298.126C183.016 296.835 184.104 294.02 186.549 290.268C188.761 286.873 188.902 286.754 191.097 286.427C192.342 286.242 195.252 285.487 197.561 284.75C206.882 281.777 209.868 282.497 207.098 287.049L206.14 288.623L207.45 287.611C209.39 286.112 212.691 282.031 213.018 280.729C213.202 279.993 213.027 279.289 212.52 278.727C211.809 277.94 211.802 277.707 212.441 276.175C213.065 274.679 213.334 274.488 214.832 274.488C216.789 274.488 218.324 275.187 218.324 276.078C218.324 276.42 217.889 277.254 217.357 277.931C215.674 280.075 217.217 279.266 220.157 276.463C224.415 272.403 223.888 271.191 217.715 270.843C215.156 270.699 213.768 270.415 213.518 269.987C213.313 269.634 212.578 269.347 211.885 269.348C210.904 269.35 195.256 274.465 191.155 276.125ZM206.484 278.051C210.199 277.537 210.266 277.505 209.86 276.418C209.507 275.47 209.233 275.352 207.969 275.605C206.567 275.886 202.214 278.161 202.54 278.443C202.625 278.516 204.399 278.34 206.484 278.051Z" fill="#F01446"/>
<path d="M161.152 59.6724C214.007 90.8611 257.322 116.589 257.407 116.846C257.544 117.257 252.206 126.4 225.842 170.906L219.491 181.628L211.092 185.795C206.473 188.087 202.611 190.042 202.511 190.139C202.41 190.236 202.66 194.576 203.065 199.784C203.47 204.992 203.741 209.313 203.668 209.386C203.595 209.46 202.349 208.975 200.899 208.31C199.116 207.492 198.189 206.77 198.036 206.082C197.912 205.523 197.159 200.647 196.362 195.247L194.912 185.43L198.389 178.651C200.3 174.923 207.362 160.998 214.08 147.706C226.205 123.719 226.288 123.536 225.226 122.974C224.638 122.662 209.774 114.625 192.195 105.114C174.617 95.6029 151.101 82.8865 139.938 76.8553C98.922 54.6949 93.6963 51.4154 83.8939 41.6868C76.3988 34.2484 71.0177 25.8437 67.7222 16.4292C66.5329 13.0324 65.9506 10.7365 64.5509 3.92359C64.4319 3.3453 64.4963 2.89276 64.6936 2.91847C64.891 2.94418 108.297 28.4837 161.152 59.6724Z" fill="#F01446"/>
<path fill-rule="evenodd" clip-rule="evenodd" d="M348.87 248.728C348.105 248.813 347.554 249.494 347.638 250.247L349.267 264.807C349.352 265.561 350.04 266.103 350.804 266.018L365.569 264.366C366.333 264.28 366.885 263.6 366.8 262.846L365.171 248.286C365.087 247.532 364.399 246.99 363.634 247.076L348.87 248.728ZM360.761 250.622L352.456 251.551C351.691 251.637 351.14 252.317 351.224 253.071L352.141 261.261C352.225 262.015 352.913 262.557 353.678 262.471L361.983 261.542C362.747 261.457 363.299 260.776 363.214 260.022L362.298 251.832C362.214 251.078 361.525 250.537 360.761 250.622Z" fill="#F01446"/>
<path fill-rule="evenodd" clip-rule="evenodd" d="M352.223 161.177C352.103 160.1 352.887 159.129 353.975 159.007L374.99 156.656C376.078 156.534 377.058 157.308 377.178 158.385L379.505 179.178C379.625 180.255 378.841 181.226 377.753 181.348L356.738 183.699C355.65 183.821 354.67 183.047 354.549 181.97L352.223 161.177ZM357.329 165.211C357.209 164.134 357.993 163.163 359.081 163.041L370.902 161.719C371.99 161.597 372.97 162.371 373.09 163.448L374.399 175.144C374.519 176.221 373.735 177.192 372.647 177.314L360.826 178.636C359.738 178.758 358.758 177.984 358.638 176.907L357.329 165.211Z" fill="#F01446"/>
<path d="M291.904 78.2464C291.872 77.9565 292.081 77.695 292.371 77.6627L295.002 77.3656C295.293 77.3333 295.554 77.5416 295.586 77.8314C295.619 78.1212 295.409 78.382 295.118 78.4151L292.488 78.7114C292.198 78.7445 291.936 78.5362 291.904 78.2464Z" fill="#F01446"/>
<path d="M316.215 81.348C316.183 81.0582 316.393 80.7966 316.683 80.7635L319.313 80.4673C319.604 80.4342 319.865 80.6433 319.897 80.9323C319.929 81.2221 319.72 81.4837 319.429 81.5168L316.8 81.8131C316.509 81.8462 316.247 81.6379 316.215 81.348Z" fill="#F01446"/>
<path d="M315.75 77.1508C315.718 76.861 315.927 76.6002 316.217 76.5671L318.847 76.2709C319.138 76.2378 319.4 76.446 319.432 76.7359C319.464 77.0257 319.254 77.2873 318.964 77.3195L316.334 77.6166C316.043 77.6489 315.782 77.4406 315.75 77.1508Z" fill="#F01446"/>
<path d="M315.982 79.2498C315.95 78.96 316.16 78.6984 316.45 78.6653L319.08 78.3691C319.371 78.336 319.632 78.5442 319.664 78.8341C319.697 79.1239 319.487 79.3855 319.196 79.4178L316.567 79.7149C316.276 79.7471 316.015 79.5389 315.982 79.2498Z" fill="#F01446"/>
<path d="M315.517 75.0526C315.485 74.7628 315.694 74.502 315.984 74.4689L318.615 74.1726C318.905 74.1395 319.167 74.3478 319.199 74.6377C319.231 74.9275 319.022 75.1891 318.731 75.2213L316.1 75.5184C315.811 75.5507 315.549 75.3424 315.517 75.0526Z" fill="#F01446"/>
<path d="M301.726 70.7698C301.435 70.7997 301.176 70.589 301.146 70.2992L300.881 67.6738C300.852 67.3832 301.064 67.124 301.354 67.0941C301.645 67.0643 301.905 67.275 301.934 67.5648L302.199 70.191C302.229 70.4808 302.017 70.74 301.726 70.7698Z" fill="#F01446"/>
<path d="M308.554 93.9018C308.264 93.9316 308.004 93.7209 307.975 93.4311L307.709 90.8049C307.68 90.5151 307.892 90.2559 308.183 90.2261C308.474 90.1962 308.733 90.4069 308.763 90.6967L309.028 93.3229C309.057 93.6127 308.845 93.8719 308.554 93.9018Z" fill="#F01446"/>
<path d="M303.83 70.5325C303.54 70.5632 303.28 70.3516 303.25 70.0618L302.985 67.4364C302.956 67.1458 303.168 66.8867 303.459 66.8568C303.749 66.8269 304.009 67.0376 304.039 67.3274L304.304 69.9536C304.333 70.2435 304.121 70.5026 303.83 70.5325Z" fill="#F01446"/>
<path d="M305.934 70.2959C305.644 70.3258 305.384 70.1143 305.355 69.8245L305.089 67.1991C305.06 66.9093 305.272 66.6493 305.563 66.6194C305.854 66.5896 306.113 66.8003 306.143 67.0909L306.408 69.7163C306.437 70.0061 306.225 70.2661 305.934 70.2959Z" fill="#F01446"/>
<path d="M308.039 70.0586C307.748 70.0885 307.488 69.8778 307.459 69.5871L307.194 66.9617C307.164 66.6719 307.376 66.412 307.667 66.3821C307.958 66.3522 308.217 66.5629 308.246 66.8536L308.512 69.4789C308.541 69.7688 308.329 70.0287 308.039 70.0586Z" fill="#F01446"/>
<path d="M292.603 84.5418C292.571 84.2519 292.78 83.9904 293.071 83.9573L295.7 83.661C295.991 83.6279 296.253 83.8362 296.285 84.126C296.317 84.4158 296.107 84.6774 295.817 84.7105L293.187 85.0068C292.897 85.0391 292.635 84.8308 292.603 84.5418Z" fill="#F01446"/>
<path d="M292.37 82.4428C292.338 82.1529 292.547 81.8922 292.838 81.8591L295.468 81.5628C295.758 81.5297 296.02 81.738 296.052 82.0278C296.084 82.3176 295.875 82.5792 295.584 82.6115L292.954 82.9086C292.664 82.9409 292.402 82.7326 292.37 82.4428Z" fill="#F01446"/>
<path d="M292.137 80.3446C292.105 80.0547 292.315 79.794 292.605 79.7609L295.235 79.4646C295.526 79.4315 295.787 79.6398 295.819 79.9296C295.851 80.2194 295.642 80.481 295.351 80.5133L292.721 80.8104C292.431 80.8427 292.169 80.6344 292.137 80.3446Z" fill="#F01446"/>
<path d="M304.346 94.3764C304.055 94.4063 303.796 94.1956 303.767 93.9058L303.501 91.2796C303.472 90.9898 303.684 90.7306 303.974 90.7008C304.266 90.6709 304.526 90.8816 304.554 91.1714L304.819 93.7968C304.849 94.0874 304.637 94.3466 304.346 94.3764Z" fill="#F01446"/>
<path d="M306.45 94.1391C306.159 94.169 305.9 93.9583 305.87 93.6684L305.605 91.0422C305.576 90.7524 305.788 90.4933 306.079 90.4634C306.369 90.4335 306.629 90.6442 306.659 90.9341L306.924 93.5595C306.953 93.8501 306.741 94.1092 306.45 94.1391Z" fill="#F01446"/>
<path d="M310.659 93.6644C310.368 93.6943 310.108 93.4836 310.079 93.1937L309.814 90.5684C309.784 90.2777 309.996 90.0186 310.287 89.9887C310.578 89.9588 310.837 90.1695 310.867 90.4594L311.132 93.0856C311.162 93.3754 310.949 93.6345 310.659 93.6644Z" fill="#F01446"/>
<path fill-rule="evenodd" clip-rule="evenodd" d="M295.062 73.1102C294.966 72.2408 295.594 71.4569 296.465 71.3584L313.298 69.4604C314.169 69.3619 314.954 69.9867 315.05 70.8562L316.914 87.6427C317.01 88.5121 316.382 89.296 315.511 89.3945L298.678 91.2925C297.807 91.391 297.022 90.7662 296.925 89.8967L295.062 73.1102ZM299.152 76.3669C299.056 75.4975 299.684 74.7136 300.555 74.6151L310.023 73.5478C310.895 73.4493 311.68 74.0742 311.776 74.9436L312.824 84.386C312.921 85.2554 312.293 86.0393 311.421 86.1378L301.953 87.2051C301.081 87.3036 300.296 86.6787 300.2 85.8093L299.152 76.3669Z" fill="#F01446"/>
<path d="M283.404 242.82L288.592 247.075C289.367 246.08 290.567 244.74 292.435 242.695C295.285 239.576 297.86 236.833 298.159 236.599C298.458 236.365 301.635 237.305 305.219 238.688C329.435 248.031 336.434 250.486 337.17 249.898C338.126 249.134 338.166 246.9 337.235 246.303C336.845 246.053 328.73 242.879 319.201 239.25C309.672 235.62 301.937 232.589 302.014 232.512C303.199 231.322 315.713 218.016 321.338 211.964C325.414 207.579 331.708 200.824 335.324 196.952C338.94 193.08 343.057 188.517 344.472 186.812L347.046 183.712L344.339 177.831L335.655 187.21C315.098 209.413 298.12 227.608 295.991 229.718L292.08 233.715L287.569 238.569L287.56 238.579C285.389 240.916 284.215 242.179 283.404 242.82Z" fill="#F01446"/>
<path fill-rule="evenodd" clip-rule="evenodd" d="M219.934 51.0771C219.267 49.5699 219.73 47.602 220.901 46.9669C221.483 46.6512 222.097 46.3627 222.265 46.326C222.432 46.2899 226.491 46.9768 231.284 47.8535C250.423 51.3538 266.63 56.4389 282.836 64.0269L289.787 67.2814L287.504 73.5665L283.592 71.6218C268.427 64.0831 251.14 58.2963 233.263 54.7737C221.183 52.3941 220.422 52.1828 219.934 51.0771ZM292.726 89.0795L291.712 90.7748C291.154 91.7077 287.722 96.8014 284.084 102.094C282.211 104.819 281.764 105.191 281.417 105.48C281.089 105.752 280.848 105.952 279.584 107.979L285.084 112.882C285.341 112.507 285.529 112.133 285.779 111.636L285.78 111.633C286.31 110.579 287.122 108.964 289.461 105.577C292.908 100.585 296.266 95.7103 296.924 94.7453L298.119 92.9904L292.726 89.0795ZM315.323 91.7934C316.168 91.3198 317.692 93.2387 329.256 109.332C332.896 114.398 340.845 125.438 346.922 133.867L357.97 149.192L365.437 148.019C364.954 147.723 356.618 136.428 346.911 122.92C337.204 109.413 327.487 95.9195 325.317 92.9348C323.148 89.9501 321.342 87.2477 321.305 86.9288L315.323 91.7934ZM343.584 164.062C342.673 163.812 332.967 162.294 295.465 156.537C292.613 156.1 289.846 155.675 287.232 155.273L275.971 157.883C281.209 158.736 289.107 159.97 301.073 161.839L307.291 162.811C326.255 165.775 342.178 168.272 342.675 168.36L343.584 164.062ZM361.661 189.433C362.064 189.493 362.132 189.81 362.024 190.62C361.929 191.329 361.515 195.911 361.102 200.801C359.81 216.115 357.636 240.025 357.524 240.145L365.172 241.39C364.165 240.811 364.202 240.065 366.453 215.077C367.728 200.932 368.801 189.347 368.84 189.331L361.661 189.433ZM345.401 267.897L347.714 265.438L352.854 269.362L349.336 273.021C339.787 282.951 303.025 318.199 293.044 326.994C287.522 331.861 276.212 341.029 274.863 341.733C274.246 342.055 273.94 341.693 273.404 340.008L272.724 337.875L277.769 333.229C282.927 328.478 294.335 317.673 302.498 309.805C305.009 307.386 310.144 302.443 313.91 298.82C324.377 288.752 342.808 270.653 345.401 267.897ZM85.9357 122.485L82.4862 129.414C80.5886 133.226 78.1201 138.447 77.0005 141.017C74.5478 146.646 67.584 166.157 67.0493 168.899C66.809 170.131 66.3584 170.89 65.8322 170.951C64.7827 171.07 62.1186 173.101 60.5151 175.003C59.8428 175.8 59.174 176.358 59.029 176.242C57.8102 175.258 62.7198 156.437 68.5781 141.959C70.605 136.95 74.4372 129.987 77.1732 125.016L77.1807 125.002L77.1835 124.997L77.1854 124.994L77.1906 124.984C77.6492 124.151 78.0767 123.374 78.4595 122.673L80.3397 119.226L85.9357 122.485ZM111.235 319.949C111.075 318.516 111.285 317.772 112.041 317.101C114.197 315.183 114.895 315.557 126.053 324.603C131.933 329.37 139.737 335.284 143.395 337.744C147.053 340.203 150.207 342.529 150.404 342.913C151.305 344.665 149.614 347.311 147.439 347.554C146.171 347.696 144.607 346.931 139.856 343.85C131.786 338.615 125.151 333.643 117.683 327.235C111.975 322.337 111.434 321.726 111.235 319.949Z" fill="#F01446"/>
<path d="M204.654 295.687C205.106 295.204 205.847 295.151 206.308 295.57L210.495 299.357C210.957 299.777 210.965 300.507 210.513 300.99C210.062 301.475 209.322 301.526 208.859 301.108L204.674 297.32C204.211 296.902 204.203 296.172 204.654 295.687Z" fill="#F01446"/>
<path d="M233.33 339.407C233.782 338.924 234.523 338.871 234.985 339.288L239.171 343.077C239.634 343.496 239.641 344.227 239.191 344.709C238.739 345.193 237.998 345.246 237.535 344.828L233.35 341.04C232.887 340.622 232.878 339.89 233.33 339.407Z" fill="#F01446"/>
<path d="M239.872 332.405C240.324 331.921 241.063 331.869 241.527 332.287L245.711 336.075C246.174 336.493 246.184 337.225 245.732 337.708C245.28 338.192 244.538 338.244 244.077 337.826L239.89 334.038C239.429 333.618 239.42 332.888 239.872 332.405Z" fill="#F01446"/>
<path d="M236.6 335.906C237.052 335.423 237.793 335.37 238.255 335.787L242.441 339.576C242.904 339.994 242.912 340.725 242.461 341.208C242.01 341.693 241.268 341.745 240.806 341.325L236.62 337.539C236.158 337.12 236.15 336.389 236.6 335.906Z" fill="#F01446"/>
<path d="M243.142 328.904C243.594 328.42 244.333 328.368 244.797 328.786L248.982 332.575C249.444 332.992 249.454 333.724 249.002 334.207C248.55 334.69 247.809 334.744 247.347 334.324L243.16 330.537C242.7 330.119 242.69 329.387 243.142 328.904Z" fill="#F01446"/>
<path d="M231.201 300.344C230.743 299.921 230.741 299.189 231.197 298.71L235.325 294.372C235.783 293.892 236.523 293.846 236.981 294.269C237.438 294.693 237.44 295.424 236.985 295.903L232.855 300.243C232.399 300.722 231.658 300.767 231.201 300.344Z" fill="#F01446"/>
<path d="M201.104 345.792C200.646 345.369 200.644 344.637 201.1 344.158L205.23 339.818C205.685 339.339 206.426 339.294 206.884 339.717C207.341 340.14 207.343 340.872 206.888 341.351L202.758 345.691C202.302 346.17 201.562 346.215 201.104 345.792Z" fill="#F01446"/>
<path d="M234.549 303.374C234.09 302.952 234.09 302.22 234.545 301.74L238.674 297.402C239.131 296.922 239.872 296.877 240.329 297.3C240.787 297.723 240.789 298.454 240.334 298.934L236.203 303.273C235.748 303.753 235.007 303.797 234.549 303.374Z" fill="#F01446"/>
<path d="M237.897 306.406C237.439 305.983 237.439 305.25 237.894 304.771L242.023 300.433C242.478 299.953 243.221 299.907 243.678 300.33C244.136 300.753 244.138 301.485 243.681 301.965L239.552 306.304C239.097 306.783 238.355 306.829 237.897 306.406Z" fill="#F01446"/>
<path d="M241.246 309.436C240.788 309.013 240.786 308.282 241.243 307.801L245.372 303.463C245.827 302.983 246.569 302.937 247.027 303.361C247.485 303.784 247.486 304.515 247.029 304.994L242.901 309.334C242.445 309.812 241.703 309.859 241.246 309.436Z" fill="#F01446"/>
<path d="M194.842 306.192C195.294 305.708 196.035 305.655 196.498 306.073L200.682 309.861C201.146 310.279 201.155 311.011 200.703 311.494C200.251 311.977 199.509 312.029 199.047 311.612L194.862 307.824C194.401 307.405 194.391 306.674 194.842 306.192Z" fill="#F01446"/>
<path d="M198.114 302.689C198.565 302.206 199.305 302.154 199.768 302.572L203.953 306.361C204.416 306.778 204.425 307.509 203.973 307.993C203.521 308.476 202.78 308.53 202.319 308.11L198.132 304.322C197.671 303.904 197.662 303.173 198.114 302.689Z" fill="#F01446"/>
<path d="M201.384 299.188C201.835 298.705 202.576 298.654 203.038 299.071L207.224 302.86C207.687 303.278 207.695 304.008 207.243 304.492C206.791 304.975 206.05 305.028 205.589 304.609L201.403 300.823C200.941 300.403 200.932 299.671 201.384 299.188Z" fill="#F01446"/>
<path d="M194.406 339.731C193.948 339.308 193.947 338.577 194.403 338.098L198.532 333.758C198.989 333.28 199.728 333.233 200.186 333.657C200.645 334.081 200.647 334.812 200.19 335.29L196.062 339.629C195.605 340.109 194.864 340.154 194.406 339.731Z" fill="#F01446"/>
<path d="M197.755 342.761C197.297 342.338 197.296 341.607 197.751 341.127L201.881 336.788C202.337 336.31 203.077 336.264 203.535 336.687C203.993 337.11 203.994 337.841 203.539 338.321L199.41 342.659C198.954 343.14 198.213 343.184 197.755 342.761Z" fill="#F01446"/>
<path d="M204.453 348.822C203.995 348.399 203.993 347.668 204.449 347.188L208.577 342.85C209.034 342.369 209.775 342.325 210.232 342.748C210.69 343.171 210.692 343.902 210.237 344.382L206.106 348.721C205.651 349.2 204.91 349.245 204.453 348.822Z" fill="#F01446"/>
<path fill-rule="evenodd" clip-rule="evenodd" d="M217.872 293.114C219.228 291.663 221.449 291.505 222.836 292.76L249.624 317.003C251.012 318.258 251.038 320.451 249.683 321.901L223.519 349.91C222.164 351.361 219.942 351.519 218.555 350.264L191.767 326.021C190.38 324.766 190.353 322.573 191.708 321.121L217.872 293.114ZM218.009 304.543C219.365 303.093 221.586 302.935 222.973 304.19L238.041 317.827C239.428 319.082 239.455 321.275 238.099 322.726L223.383 338.481C222.027 339.931 219.805 340.089 218.418 338.834L203.35 325.197C201.963 323.942 201.937 321.749 203.292 320.298L218.009 304.543Z" fill="#F01446"/>
</svg>
